<?xml version="1.0" encoding="utf-8"?>
<!-- Generator: Adobe Illustrator 21.0.2, SVG Export Plug-In . SVG Version: 6.00 Build 0)  -->
<svg version="1.1" id="Layer_1" xmlns="http://www.w3.org/2000/svg" xmlns:xlink="http://www.w3.org/1999/xlink" x="0px" y="0px"
	 viewBox="0 0 256 256" style="enable-background:new 0 0 256 256;" xml:space="preserve">
<style type="text/css">
	.st0{fill:#B8143C;}
	.st1{fill:#FFFFFF;}
</style>
<g>
	<path class="st0" d="M33,62.6c2.3,0,4.2-1.9,4.2-4.2V37.2h21.2c2.3,0,4.2-1.9,4.2-4.2c0-2.3-1.9-4.2-4.2-4.2H33
		c-2.3,0-4.2,1.9-4.2,4.2v25.4C28.8,60.7,30.7,62.6,33,62.6"/>
	<path class="st0" d="M197.6,37.2h21.2v21.2c0,2.3,1.9,4.2,4.2,4.2c2.3,0,4.2-1.9,4.2-4.2V33c0-2.3-1.9-4.2-4.2-4.2h-25.4
		c-2.3,0-4.2,1.9-4.2,4.2C193.4,35.3,195.3,37.2,197.6,37.2"/>
	<path class="st0" d="M58.4,218.8H37.2v-21.2c0-2.3-1.9-4.2-4.2-4.2c-2.3,0-4.2,1.9-4.2,4.2V223c0,2.3,1.9,4.2,4.2,4.2h25.4
		c2.3,0,4.2-1.9,4.2-4.2S60.7,218.8,58.4,218.8"/>
	<path class="st0" d="M223,193.4c-2.3,0-4.2,1.9-4.2,4.2v21.2h-21.2c-2.3,0-4.2,1.9-4.2,4.2s1.9,4.2,4.2,4.2H223
		c2.3,0,4.2-1.9,4.2-4.2v-25.4C227.2,195.3,225.3,193.4,223,193.4"/>
	<path class="st0" d="M132.3,132.3v20.6v0.4h0c-0.1,1.1-0.6,2-1.3,2.7c-0.8,0.8-1.9,1.3-3.1,1.3c-1.2,0-2.3-0.5-3.1-1.3
		c-0.8-0.8-1.3-1.9-1.3-3.1v-20.6h-20.6c-1.2,0-2.3-0.5-3.1-1.3v0c-0.8-0.8-1.3-1.9-1.3-3.1c0-1.2,0.5-2.3,1.3-3.1
		c0.7-0.7,1.7-1.2,2.7-1.3v0h0.4h20.6v-20.6c0-1.2,0.5-2.3,1.3-3.1c0.8-0.8,1.9-1.3,3.1-1.3c1.2,0,2.3,0.5,3.1,1.3
		c0.7,0.7,1.2,1.7,1.3,2.7h0v0.4v20.6h20.6h0.4v0c1.1,0.1,2,0.6,2.7,1.3c0.8,0.8,1.3,1.9,1.3,3.1c0,1.2-0.5,2.3-1.3,3.1v0
		c-0.8,0.8-1.9,1.3-3.1,1.3H132.3z"/>
	<path class="st1" d="M229.9,96.5c8.7,8.7,16.2,18.6,22.4,29.3c0.4,0.7,0.6,1.4,0.6,2.2c0,0.7-0.2,1.5-0.6,2.2
		c-6.2,10.7-13.8,20.6-22.4,29.3c-8.7,8.7-18.5,16.4-29.1,22.7c-10.4,6.1-21.5,10.9-33.1,14.2c-11.5,3.3-23.3,5.1-35.4,5.5v19.7
		c0,1.2-0.5,2.3-1.3,3.1c-0.8,0.8-1.9,1.3-3.1,1.3c-1.2,0-2.3-0.5-3.1-1.3c-0.8-0.8-1.3-1.9-1.3-3.1v-19.7
		c-12-0.4-23.9-2.2-35.4-5.5c-11.6-3.3-22.7-8.1-33.1-14.2c-10.7-6.3-20.4-13.9-29.1-22.7c-8.7-8.7-16.2-18.6-22.4-29.3
		c-0.4-0.7-0.6-1.4-0.6-2.2c0-0.7,0.2-1.5,0.6-2.2c6.2-10.7,13.8-20.6,22.4-29.3c8.7-8.7,18.5-16.4,29.1-22.7
		c10.4-6.1,21.5-10.9,33.1-14.2c11.5-3.3,23.3-5.1,35.4-5.5V34.2c0-1.2,0.5-2.3,1.3-3.1h0c0.8-0.8,1.9-1.3,3.1-1.3
		c1.2,0,2.3,0.5,3.1,1.3l0,0c0.8,0.8,1.3,1.9,1.3,3.1v19.9c12,0.4,23.9,2.2,35.4,5.5c11.6,3.3,22.7,8.1,33.1,14.2
		C211.4,80.1,221.2,87.8,229.9,96.5 M43.2,92.8c-12.1,9.7-22.5,21.6-30.8,35.2c8.2,13.6,18.7,25.5,30.8,35.2
		c11.7,9.5,25,16.9,39.1,22c-7.8-6.2-14.2-13.9-19-22.8c-4.9-9.1-7.9-19.3-8.5-30.2h-19c-1.2,0-2.3-0.5-3.1-1.3v0
		c-0.8-0.8-1.3-1.9-1.3-3.1c0-1.2,0.5-2.3,1.3-3.1c0.8-0.8,1.9-1.3,3.1-1.3h19c0.6-10.8,3.6-21.1,8.5-30.2
		c4.7-8.8,11.2-16.6,19-22.8C68.2,75.8,55,83.3,43.2,92.8z M131.1,169.7c0.8,0.8,1.3,1.9,1.3,3.1v19.6c16.1-1.1,30.6-8.1,41.3-18.8
		c10.7-10.7,17.7-25.2,18.8-41.3h-19.6h-0.4v0c-1.1-0.1-2-0.6-2.7-1.3v0c-0.8-0.8-1.3-1.9-1.3-3.1c0-1.2,0.5-2.3,1.3-3.1
		c0.8-0.8,1.9-1.3,3.1-1.3h0.4v0h19.2c-1.1-16.1-8.1-30.6-18.8-41.3c-10.7-10.7-25.2-17.7-41.3-18.8v19.6c0,1.2-0.5,2.3-1.3,3.1
		c-0.8,0.8-1.9,1.3-3.1,1.3c-1.2,0-2.3-0.5-3.1-1.3c-0.8-0.8-1.3-1.9-1.3-3.1V63.6c-16.1,1.1-30.6,8.1-41.3,18.8
		s-17.7,25.2-18.8,41.3h19.2v0h0.4c1.2,0,2.3,0.5,3.1,1.3c0.8,0.8,1.3,1.9,1.3,3.1c0,1.2-0.5,2.3-1.3,3.1v0
		c-0.7,0.7-1.7,1.2-2.7,1.3v0h-0.4H63.6c1.1,16.1,8.1,30.6,18.8,41.3c10.7,10.7,25.2,17.7,41.3,18.8v-19.6c0-1.2,0.5-2.3,1.3-3.1
		c0.8-0.8,1.9-1.3,3.1-1.3C129.2,168.4,130.3,168.9,131.1,169.7z M192.6,162.5c-4.7,8.8-11.2,16.6-19,22.8
		c14.2-5.1,27.4-12.6,39.1-22c12.1-9.7,22.5-21.6,30.8-35.2c-8.2-13.6-18.7-25.5-30.8-35.2c-11.7-9.5-25-16.9-39.1-22
		c7.8,6.2,14.2,13.9,19,22.8c4.9,9.1,7.9,19.3,8.5,30.2h19c1.2,0,2.3,0.5,3.1,1.3c0.8,0.8,1.3,1.9,1.3,3.1c0,1.2-0.5,2.3-1.3,3.1v0
		c-0.8,0.8-1.9,1.3-3.1,1.3h-19C200.5,143.2,197.5,153.4,192.6,162.5z"/>
</g>
</svg>
