<?xml version="1.0" encoding="utf-8"?>
<!-- Generator: Adobe Illustrator 21.0.2, SVG Export Plug-In . SVG Version: 6.00 Build 0)  -->
<svg version="1.1" id="Layer_1" xmlns="http://www.w3.org/2000/svg" xmlns:xlink="http://www.w3.org/1999/xlink" x="0px" y="0px"
	 width="256px" height="256px" viewBox="0 0 256 256" style="enable-background:new 0 0 256 256;" xml:space="preserve">
<style type="text/css">
	.st0{fill:#FFFFFF;}
	.st1{fill:#B8143C;}
</style>
<g>
	<path class="st0" d="M108.4,64.4h39.1c2.7,0,4.9-2.2,4.9-4.9V49.2c0-7.4-4.3-13.9-10.5-17c0.9-1.8,1.4-3.9,1.4-6.1v-4.7
		c0-7.6-6.2-13.8-13.8-13.8h-3.3c-7.6,0-13.8,6.2-13.8,13.8v4.7c0,2.2,0.5,4.2,1.4,6.1c-6.2,3.2-10.5,9.6-10.5,17v10.3
		C103.5,62.2,105.7,64.4,108.4,64.4z M122.4,21.4c0-2.2,1.8-4,4-4h3.3c2.2,0,4,1.8,4,4v4.7c0,2.2-1.8,4-4,4h-3.3c-2.2,0-4-1.8-4-4
		V21.4z M113.3,49.2c0-5.1,4.2-9.3,9.3-9.3h10.8c5.1,0,9.3,4.2,9.3,9.3v5.4h-29.4V49.2z"/>
	<path class="st0" d="M147.6,191.6h-39.1c-2.7,0-4.9,2.2-4.9,4.9v10.3c0,7.4,4.3,13.9,10.5,17c-0.9,1.8-1.4,3.9-1.4,6.1v4.7
		c0,7.6,6.2,13.8,13.8,13.8h3.3c7.6,0,13.8-6.2,13.8-13.8v-4.7c0-2.2-0.5-4.2-1.4-6.1c6.2-3.2,10.5-9.6,10.5-17v-10.3
		C152.5,193.8,150.3,191.6,147.6,191.6z M133.6,234.6c0,2.2-1.8,4-4,4h-3.3c-2.2,0-4-1.8-4-4v-4.7c0-2.2,1.8-4,4-4h3.3
		c2.2,0,4,1.8,4,4V234.6z M142.7,206.8c0,5.1-4.2,9.3-9.3,9.3h-10.8c-5.1,0-9.3-4.2-9.3-9.3v-5.4h29.4V206.8z"/>
	<path class="st0" d="M192.9,113.1c0.6,1.1,1.7,1.9,3,2.3c0.4,0.1,0.8,0.2,1.3,0.2c0.9,0,1.7-0.2,2.4-0.7l8.9-5.1
		c4.4-2.5,7.6-6.7,8.9-11.6c0.5-2,0.7-4,0.6-6c2.1-0.1,4.1-0.8,5.9-1.8l4.1-2.4c3.2-1.8,5.5-4.8,6.4-8.4c1-3.6,0.5-7.3-1.4-10.5
		l-1.6-2.8c-1.8-3.2-4.8-5.5-8.4-6.4c-3.6-1-7.3-0.5-10.5,1.4l-4.1,2.4c-1.9,1.1-3.4,2.5-4.6,4.2c-5.8-3.8-13.5-4.3-20-0.5l-8.9,5.1
		c-2.3,1.4-3.1,4.3-1.8,6.7L192.9,113.1z M211.5,74.6c0.3-1,0.9-1.9,1.9-2.4l4.1-2.4c0.6-0.4,1.3-0.5,2-0.5c1.4,0,2.7,0.7,3.5,2
		l1.6,2.8c0.5,0.9,0.7,2,0.4,3c-0.3,1-0.9,1.9-1.9,2.4l-4.1,2.4c-1.9,1.1-4.4,0.4-5.5-1.5l-1.6-2.8
		C211.4,76.7,211.3,75.7,211.5,74.6z M188.9,75.9c4.4-2.6,10.1-1,12.7,3.4l1.9,3.2c0,0,0,0,0,0l1.6,2.8c0,0,0,0,0,0l1.9,3.2
		c2.6,4.4,1,10.1-3.4,12.7l-4.7,2.7l-14.7-25.4L188.9,75.9z"/>
	<path class="st0" d="M63.1,142.9c-0.6-1.1-1.7-1.9-3-2.3c-1.3-0.3-2.6-0.2-3.7,0.5l-8.9,5.1c-4.4,2.5-7.6,6.7-8.9,11.6
		c-0.5,2-0.7,4-0.6,6c-2.1,0.1-4.1,0.8-5.9,1.8l-4.1,2.4c-3.2,1.8-5.5,4.8-6.4,8.4c-1,3.6-0.5,7.3,1.4,10.5l1.6,2.8
		c1.8,3.2,4.8,5.5,8.4,6.4c1.2,0.3,2.4,0.5,3.6,0.5c2.4,0,4.7-0.6,6.9-1.9l4.1-2.4c1.8-1.1,3.4-2.5,4.5-4.2c1.7,1.1,3.5,1.9,5.5,2.4
		c1.6,0.4,3.3,0.7,5,0.7c3.3,0,6.6-0.9,9.5-2.6l8.9-5.1c2.3-1.4,3.1-4.3,1.8-6.7L63.1,142.9z M44.5,181.4c-0.3,1-0.9,1.9-1.9,2.4
		l-4.1,2.4c-1.9,1.1-4.4,0.4-5.5-1.5l-1.6-2.8l0,0c-0.5-0.9-0.7-2-0.4-3c0.3-1,0.9-1.9,1.9-2.4l4.1-2.4c0.6-0.4,1.3-0.5,2-0.5
		c1.4,0,2.7,0.7,3.5,2l1.6,2.8C44.6,179.3,44.7,180.3,44.5,181.4z M67.1,180.1c-2.2,1.2-4.7,1.6-7.1,0.9c-2.4-0.6-4.4-2.2-5.6-4.3
		l-5.4-9.3c-2.6-4.4-1-10.1,3.4-12.7l4.7-2.7l14.7,25.4L67.1,180.1z"/>
	<path class="st0" d="M228,167.9l-4.1-2.4c-1.9-1.1-3.9-1.7-6-1.8c0.4-6.9-3.1-13.9-9.5-17.6l-8.9-5.1c-1.1-0.6-2.5-0.8-3.7-0.5
		c-1.3,0.3-2.3,1.2-3,2.3l-19.6,33.9c-1.4,2.3-0.5,5.3,1.8,6.7l8.9,5.1c3,1.7,6.3,2.6,9.5,2.6c3.7,0,7.3-1.1,10.5-3.1
		c1.2,1.7,2.7,3.2,4.5,4.2l4.1,2.4c2.1,1.2,4.5,1.9,6.9,1.9c1.2,0,2.4-0.2,3.6-0.5c3.6-1,6.5-3.2,8.4-6.4l1.6-2.8
		c1.8-3.2,2.3-6.9,1.4-10.5C233.5,172.8,231.2,169.8,228,167.9z M207,167.4l-5.4,9.3c-2.6,4.4-8.3,6-12.7,3.4l-4.7-2.7l14.7-25.4
		l4.7,2.7c2.2,1.2,3.7,3.2,4.3,5.6C208.5,162.7,208.2,165.2,207,167.4z M224.6,181.9l-1.6,2.8c-1.1,1.9-3.5,2.6-5.5,1.5l-4.1-2.4
		c-0.9-0.5-1.6-1.4-1.9-2.4c-0.3-1-0.1-2.1,0.4-3l1.6-2.8c0.7-1.3,2.1-2,3.5-2c0.7,0,1.4,0.2,2,0.5l4.1,2.4c0.9,0.5,1.6,1.4,1.9,2.4
		C225.3,179.9,225.1,181,224.6,181.9z"/>
	<path class="st0" d="M28,88.1l4.1,2.4c1.9,1.1,3.9,1.7,6,1.8c-0.4,6.9,3.1,13.8,9.5,17.6l8.9,5.1c0.8,0.4,1.6,0.7,2.4,0.7
		c0.4,0,0.8-0.1,1.3-0.2c1.3-0.3,2.3-1.2,3-2.3l19.6-33.9c1.4-2.3,0.5-5.3-1.8-6.7L72,67.4c-6.4-3.7-14.1-3.2-20,0.5
		c-1.2-1.7-2.7-3.2-4.6-4.2l-4.1-2.4c-3.2-1.8-6.9-2.3-10.5-1.4c-3.6,1-6.5,3.2-8.4,6.4l0,0l-1.6,2.8c-1.8,3.2-2.3,6.9-1.4,10.5
		C22.5,83.2,24.8,86.2,28,88.1z M49,88.6l5.4-9.3c1.2-2.2,3.2-3.7,5.6-4.3c0.8-0.2,1.6-0.3,2.4-0.3c1.6,0,3.2,0.4,4.6,1.2l4.7,2.7
		L57.1,104l-4.7-2.7c-2.2-1.2-3.7-3.2-4.3-5.6C47.5,93.3,47.8,90.8,49,88.6z M31.4,74.1l1.6-2.8l0,0c1.1-1.9,3.6-2.6,5.5-1.5
		l4.1,2.4c0.9,0.5,1.6,1.4,1.9,2.4c0.3,1,0.1,2.1-0.4,3l-1.6,2.8c-1.1,1.9-3.5,2.6-5.5,1.5l-4.1-2.4C32,79,31.3,78.2,31,77.2
		C30.7,76.1,30.9,75,31.4,74.1z"/>
	<path class="st1" d="M186.9,132.3v-8.7c0-0.9-0.2-1.7-0.7-2.4L163,81c-0.4-0.7-1-1.4-1.8-1.8l-7.5-4.3c-0.7-0.4-1.6-0.7-2.4-0.7
		h-46.5c-0.9,0-1.7,0.2-2.4,0.7l-7.5,4.3c-0.7,0.4-1.4,1-1.8,1.8l-23.2,40.3c-0.4,0.7-0.7,1.6-0.7,2.4v8.7c0,0.9,0.2,1.7,0.7,2.4
		L93,175c0.4,0.7,1,1.4,1.8,1.8l7.5,4.3c0.7,0.4,1.6,0.7,2.4,0.7h46.5c0.9,0,1.7-0.2,2.4-0.7l7.5-4.3c0.7-0.4,1.4-1,1.8-1.8
		l23.2-40.3C186.7,134,186.9,133.2,186.9,132.3z M177.1,131l-21.9,38l-5.2,3h-43.9l-5.2-3l-21.9-38V125l21.9-38l5.2-3h43.9l5.2,3
		l21.9,38L177.1,131L177.1,131z"/>
	<path class="st1" d="M116.2,152.5h-2.3l-1.2-2c-1.4-2.3-4.3-3.1-6.7-1.8c-2.3,1.4-3.1,4.3-1.8,6.7l2.6,4.4c0.9,1.5,2.5,2.4,4.2,2.4
		h5.1c2.7,0,4.9-2.2,4.9-4.9C121.1,154.7,118.9,152.5,116.2,152.5z"/>
	<path class="st1" d="M99.1,119.3c-2.3-1.4-5.3-0.5-6.7,1.8l-2.6,4.4c-0.9,1.5-0.9,3.4,0,4.9l2.6,4.4c0.9,1.6,2.6,2.4,4.2,2.4
		c0.8,0,1.7-0.2,2.4-0.7c2.3-1.4,3.1-4.3,1.8-6.7l-1.2-2l1.2-2C102.3,123.7,101.5,120.7,99.1,119.3z"/>
	<path class="st1" d="M106,107.3c0.8,0.4,1.6,0.7,2.4,0.7c1.7,0,3.3-0.9,4.2-2.4l1.2-2h2.3c2.7,0,4.9-2.2,4.9-4.9
		c0-2.7-2.2-4.9-4.9-4.9h-5.1c-1.7,0-3.4,0.9-4.2,2.4l-2.6,4.4C102.9,103,103.7,106,106,107.3z"/>
	<path class="st1" d="M149.2,96.2c-0.9-1.5-2.5-2.4-4.2-2.4h-5.1c-2.7,0-4.9,2.2-4.9,4.9c0,2.7,2.2,4.9,4.9,4.9h2.3l1.2,2
		c0.9,1.6,2.6,2.4,4.2,2.4c0.8,0,1.7-0.2,2.4-0.7c2.3-1.4,3.1-4.3,1.8-6.7L149.2,96.2z"/>
	<path class="st1" d="M155.1,126l1.2,2l-1.2,2c-1.4,2.3-0.5,5.3,1.8,6.7c0.8,0.4,1.6,0.7,2.4,0.7c1.7,0,3.3-0.9,4.2-2.4l2.6-4.4
		c0.9-1.5,0.9-3.4,0-4.9l-2.6-4.4c-1.4-2.3-4.3-3.1-6.7-1.8C154.5,120.7,153.7,123.7,155.1,126z"/>
	<path class="st1" d="M150,148.7c-2.3-1.4-5.3-0.5-6.7,1.8l-1.2,2h-2.3c-2.7,0-4.9,2.2-4.9,4.9c0,2.7,2.2,4.9,4.9,4.9h5.1
		c1.7,0,3.4-0.9,4.2-2.4l2.6-4.4C153.1,153,152.3,150,150,148.7z"/>
	<path class="st1" d="M143.9,128c0-8.8-7.1-15.9-15.9-15.9c-8.8,0-15.9,7.1-15.9,15.9s7.1,15.9,15.9,15.9
		C136.8,143.9,143.9,136.8,143.9,128z M128,134.1c-3.4,0-6.1-2.7-6.1-6.1c0-3.4,2.7-6.1,6.1-6.1c3.4,0,6.1,2.7,6.1,6.1
		C134.1,131.4,131.4,134.1,128,134.1z"/>
</g>
</svg>
