<?xml version="1.0" encoding="utf-8"?>
<!-- Generator: Adobe Illustrator 21.0.2, SVG Export Plug-In . SVG Version: 6.00 Build 0)  -->
<svg version="1.1" id="Layer_1" xmlns="http://www.w3.org/2000/svg" xmlns:xlink="http://www.w3.org/1999/xlink" x="0px" y="0px"
	 viewBox="0 0 256 256" style="enable-background:new 0 0 256 256;" xml:space="preserve">
<style type="text/css">
	.st0{fill:#B8143C;}
	.st1{fill:#FFFFFF;}
</style>
<g>
	<path class="st0" d="M220.5,35.5c-4.5-4.5-13.4-9.1-30.5-5.2c-2.4,0.5-3.9,2.9-3.3,5.3c0.5,2.4,2.9,3.9,5.3,3.3
		c7.3-1.6,17-2.5,22.3,2.8c6.2,6.2,5.3,20.2-2.6,38.3c-8,18.6-22.6,40.2-41.2,61.1c-3.3-2.5-7.5-3.9-11.9-3.9
		c-11.1,0-20.2,9.1-20.2,20.2c0,11.1,9.1,20.2,20.2,20.2c11.1,0,20.2-9.1,20.2-20.2c0-3.5-0.9-6.7-2.4-9.6
		c19.6-21.9,35-44.6,43.5-64.3C229.4,61.3,229.6,44.7,220.5,35.5 M158.5,168.9c-6.3,0-11.4-5.1-11.4-11.4c0-6.3,5.1-11.4,11.4-11.4
		c6.3,0,11.4,5.1,11.4,11.4C169.9,163.8,164.8,168.9,158.5,168.9z"/>
	<path class="st0" d="M137.9,184.9c-20.7,17.2-41.9,30.3-59.7,37c-9.2,3.5-17.3,5.2-24.2,5.2c-7.8,0-14.1-2.2-18.5-6.7
		c-4.5-4.5-9-13.4-5.2-30.3c0.5-2.4,2.9-3.9,5.3-3.3c2.4,0.5,3.9,2.9,3.3,5.3c-1.6,7.2-2.4,16.9,2.9,22.2c5.6,5.7,17.5,5.5,33.4-0.5
		c16.8-6.4,37.2-19,57.2-35.6c1.9-1.6,4.7-1.3,6.2,0.6C140,180.6,139.8,183.4,137.9,184.9"/>
	<path class="st1" d="M225.1,108.2c1.3,6.5,2,13.2,2,19.8c0,8.8-1.2,17.3-3.3,25.5c0,0.1-0.1,0.3-0.1,0.4
		c-9.9,36.5-40.1,64.7-77.8,71.6c-0.1,0-0.3,0.1-0.4,0.1c-5.7,1-11.6,1.6-17.6,1.6c-7.2,0-14.4-0.8-21.4-2.3
		c-2.4-0.5-3.9-2.9-3.4-5.3c0.5-2.4,2.9-3.9,5.2-3.4c6.4,1.4,12.9,2.1,19.5,2.1c4.7,0,9.4-0.4,13.9-1.1c3-7.2,5.6-16.5,7.7-27
		c0.5-2.4,2.8-3.9,5.2-3.5c2.4,0.5,3.9,2.8,3.5,5.2c-1.7,8.7-3.8,16.4-6.1,23c28.3-7.9,51.1-29.2,60.9-56.6
		c-6.8,1.4-13.8,2.6-20.7,3.6c-2.4,0.4-4.6-1.3-5-3.7c-0.4-2.4,1.3-4.6,3.7-5c8.4-1.2,16.7-2.8,24.8-4.5c1.6-6.7,2.4-13.7,2.4-20.8
		c0-6.1-0.6-12.2-1.8-18.1c-0.5-2.4,1.1-4.7,3.4-5.2C222.3,104.3,224.7,105.8,225.1,108.2"/>
	<path class="st1" d="M206.1,66.9c-18.9-24.2-47.4-38-78.1-38c-6,0-11.9,0.5-17.6,1.6c-0.1,0-0.3,0-0.4,0.1
		c-32.6,6-59.6,27.9-72.7,57.4c-0.1,0.2-0.3,0.5-0.3,0.8c-5.2,12.1-8.1,25.3-8.1,39.3c0,30,13.3,58,36.6,76.9c0.8,0.7,1.8,1,2.8,1
		c1.3,0,2.5-0.6,3.4-1.6c1.5-1.9,1.3-4.7-0.6-6.2c-13-10.6-22.6-24.3-28.1-39.7c16.6,3.4,33.6,5.7,50.9,7c0.8,8,1.9,15.6,3.2,22.8
		c0.4,2.4,2.7,4,5.1,3.5c2.4-0.4,4-2.7,3.5-5.1c-1.2-6.5-2.2-13.4-2.9-20.6c7.2,0.4,14.4,0.6,21.6,0.7h0c2.4,0,4.4-2,4.4-4.4
		c0-2.4-1.9-4.4-4.4-4.4c-7.6-0.1-15.1-0.3-22.5-0.8c-0.7-9.4-1.1-19.2-1.1-29.2c0-8.2,0.3-16.3,0.8-24.1c8.7,0.6,17.5,0.9,26.4,0.9
		c8.9,0,17.7-0.3,26.4-0.9c0.4,6.4,0.7,12.9,0.7,19.6c0,2.4,2,4.4,4.4,4.4h0.1c2.4,0,4.4-2,4.4-4.5c-0.1-6.8-0.3-13.6-0.8-20.2
		c9.8-0.9,19.4-2.2,28.9-3.8c2.4-0.4,4-2.7,3.6-5.1c-0.4-2.4-2.7-4-5.1-3.6c-9.2,1.6-18.5,2.8-28.1,3.7
		c-1.9-20.8-5.5-39.4-10.4-53.5c18.4,5.1,34.9,15.9,47,31.4c1.5,1.9,4.3,2.3,6.2,0.8C207.2,71.6,207.6,68.8,206.1,66.9 M40.1,148.8
		c-1.6-6.7-2.4-13.7-2.4-20.8c0-11.5,2.2-22.6,6.1-32.7c15.7,3.8,32.1,6.4,49,7.9c-0.5,8-0.8,16.3-0.8,24.8c0,9.7,0.4,19.3,1.1,28.6
		C75,155.1,57.3,152.5,40.1,148.8z M93.5,94.4c-15.9-1.4-31.2-3.9-46-7.3c11.4-22.3,31.8-39.3,56.4-46.1
		C98.9,55.1,95.3,73.6,93.5,94.4z M153.7,95.1c-8.5,0.6-17.1,0.9-25.7,0.9c-8.7,0-17.3-0.3-25.7-0.8c2-22.7,6.2-42.6,11.9-56.4
		c4.5-0.7,9.2-1.1,13.9-1.1c4.7,0,9.3,0.4,13.9,1.1C147.5,52.4,151.7,72.4,153.7,95.1z"/>
</g>
</svg>
