<?xml version="1.0" encoding="utf-8"?>
<!-- Generator: Adobe Illustrator 21.0.2, SVG Export Plug-In . SVG Version: 6.00 Build 0)  -->
<svg version="1.1" id="Layer_1" xmlns="http://www.w3.org/2000/svg" xmlns:xlink="http://www.w3.org/1999/xlink" x="0px" y="0px"
	 viewBox="0 0 256 256" style="enable-background:new 0 0 256 256;" xml:space="preserve">
<style type="text/css">
	.st0{fill:#FFFFFF;}
	.st1{fill:#B8143C;}
</style>
<g>
	<path class="st0" d="M131.9,228.3c-1.2,0-2.4-0.5-3.2-1.3l-78.5-78.5c-1.8-1.8-1.8-4.6,0-6.4c1.8-1.8,4.6-1.8,6.4,0l75.3,75.3
		l86.6-86.6c10.4-10.4,16.1-24.2,16.1-38.9c0-14.7-5.7-28.6-16.1-38.9c-10.4-10.4-24.2-16.1-38.9-16.1c-13.2,0-25.6,4.7-35.9,13.7
		l-8.7,8.1c-1.7,1.6-4.5,1.6-6.2,0l-8.7-8.1c-10.3-8.9-22.7-13.7-35.9-13.7c-14.7,0-28.5,5.7-38.9,16.1
		c-14.4,14.4-19.5,35.5-13.3,55.3c0.7,2.4-0.6,4.9-3,5.7c-2.4,0.7-4.9-0.6-5.7-3c-7.1-23-1.2-47.6,15.6-64.4
		C51,34.4,67.1,27.7,84.2,27.7c15.3,0,30.2,5.7,42,16c0,0,0.1,0.1,0.1,0.1l5.6,5.2l5.6-5.2c0,0,0.1-0.1,0.1-0.1
		c11.8-10.3,26.7-16,41.9-16c17.1,0,33.2,6.7,45.4,18.8c12.1,12.1,18.8,28.2,18.8,45.4c0,17.1-6.7,33.3-18.8,45.4L135.1,227
		C134.3,227.8,133.1,228.3,131.9,228.3z"/>
	<path class="st1" d="M113.7,179.6c-0.1,0-0.1,0-0.2,0c-2.1-0.1-3.8-1.5-4.3-3.6L88.9,83.7l-18.1,45.4c-0.7,1.7-2.4,2.9-4.2,2.9
		H16.9c-2.5,0-4.5-2-4.5-4.5s2-4.5,4.5-4.5h46.6l22.4-56.2c0.7-1.9,2.6-3,4.6-2.8c2,0.2,3.6,1.6,4.1,3.5l19.7,89.4l19.5-66.8
		c0.6-1.9,2.3-3.2,4.3-3.3c2,0,3.8,1.2,4.4,3.1l10.9,32.8h46.2c2.5,0,4.5,2,4.5,4.5s-2,4.5-4.5,4.5H150c-2,0-3.7-1.3-4.3-3.1
		l-7.3-22l-20.4,69.9C117.5,178.3,115.7,179.6,113.7,179.6z"/>
</g>
</svg>
