<?xml version="1.0" encoding="utf-8"?>
<!-- Generator: Adobe Illustrator 21.0.2, SVG Export Plug-In . SVG Version: 6.00 Build 0)  -->
<svg version="1.1" id="Layer_1" xmlns="http://www.w3.org/2000/svg" xmlns:xlink="http://www.w3.org/1999/xlink" x="0px" y="0px"
	 viewBox="0 0 256 256" style="enable-background:new 0 0 256 256;" xml:space="preserve">
<style type="text/css">
	.st0{fill:#B8143C;}
	.st1{fill:#FFFFFF;}
</style>
<g>
	<path class="st0" d="M160.2,215.2c9.1-3.9,17.4-9.5,24.4-16.8l0,0l0,0l0,0c0.9-0.9,2-1.3,3.1-1.3c1.1,0,2.2,0.4,3.1,1.3h0l0,0l0,0
		l0,0l0,0c0.9,0.8,1.3,1.9,1.3,3c0,1.1-0.4,2.2-1.2,3.1h0l0,0l0,0c-7.9,8.1-17.2,14.4-27.3,18.7c-10.1,4.3-21.1,6.7-32.4,6.8l0,0h-1
		c-10.9,0-21.5-2.1-31.3-6c-9.6-3.8-18.4-9.4-26.2-16.6l0.1,6.4l0,0c0,1.2-0.5,2.3-1.3,3.1c-0.8,0.8-1.9,1.3-3.1,1.3l0,0h0
		c-1.2,0-2.3-0.5-3.1-1.3c-0.8-0.8-1.3-1.9-1.3-3.1v0l-0.2-16.8l0,0c0-1.2,0.5-2.3,1.3-3.1c0.8-0.8,1.9-1.3,3.1-1.3h0l16.8-0.2l0,0
		h0c1.2,0,2.3,0.5,3.1,1.3c0.8,0.8,1.3,1.9,1.3,3.1l0,0c0,1.2-0.5,2.3-1.3,3.1c-0.8,0.8-1.9,1.3-3.1,1.3h0l-6.2,0.1
		c7,6.4,15.1,11.4,23.7,14.8c9,3.5,18.6,5.3,28.5,5.2C141.2,221.2,151.1,219.1,160.2,215.2"/>
	<path class="st1" d="M59.7,121.4c0-1.6-0.8-3.1-2.1-4c-0.9-0.6-1.3-1.5-1.3-2.6V97.5c0-6,4.9-10.9,10.9-10.9h3.8
		c6,0,10.9,4.9,10.9,10.9v17.4c0,1-0.5,2-1.3,2.6c-1.4,0.9-2.1,2.4-2.1,4v16.8c0,2.1,1.2,4,3.1,5c2.2,1.1,13.4,6.7,23.8,15.3
		c0.8,0.7,1.3,1.7,1.3,2.8v11.9c0,2.7,2.1,4.8,4.8,4.8c2.7,0,4.8-2.1,4.8-4.8v-11.9c0-4-1.7-7.7-4.8-10.2
		c-9.1-7.5-18.9-13-23.4-15.3v-12.1c2.2-2.3,3.5-5.4,3.5-8.7V97.5c0-11.3-9.2-20.4-20.4-20.4h-3.8c-11.3,0-20.4,9.2-20.4,20.4v17.4
		c0,3.3,1.3,6.4,3.5,8.7v12.1c-4.6,2.4-14.3,7.9-23.4,15.3c-3,2.5-4.8,6.2-4.8,10.2v11.9c0,2.7,2.1,4.8,4.8,4.8
		c2.6,0,4.8-2.1,4.8-4.8v-11.9c0-1.1,0.5-2.1,1.3-2.8c10.4-8.5,21.6-14.2,23.8-15.3c1.9-0.9,3.1-2.9,3.1-5L59.7,121.4L59.7,121.4z"
		/>
	<path class="st1" d="M229.2,151c-9.1-7.5-18.9-13-23.4-15.3v-12.1c2.2-2.3,3.5-5.4,3.5-8.7V97.5c0-11.3-9.2-20.4-20.4-20.4h-3.8
		c-11.3,0-20.4,9.2-20.4,20.4v17.4c0,3.3,1.3,6.4,3.5,8.7v12c-4.6,2.4-14.3,7.9-23.4,15.3c-3,2.5-4.8,6.2-4.8,10.2v11.9
		c0,2.7,2.1,4.8,4.8,4.8c2.6,0,4.8-2.1,4.8-4.8v-11.9c0-1.1,0.5-2.1,1.3-2.8c10.4-8.5,21.6-14.2,23.8-15.3c1.9-0.9,3.1-2.9,3.1-5
		v-16.8c0-1.6-0.8-3.1-2.1-4c-0.9-0.6-1.3-1.5-1.3-2.6V97.5c0-6,4.9-10.9,10.9-10.9h3.8c6,0,10.9,4.9,10.9,10.9v17.4
		c0,1-0.5,2-1.3,2.6c-1.3,0.9-2.1,2.4-2.1,4v16.8c0,2.1,1.2,4,3.1,5c2.2,1.1,13.4,6.7,23.8,15.3c0.8,0.7,1.3,1.7,1.3,2.8v11.9
		c0,2.7,2.1,4.8,4.8,4.8c2.6,0,4.8-2.1,4.8-4.8v-11.9C233.9,157.3,232.2,153.5,229.2,151"/>
	<path class="st0" d="M95.8,40.8c-9.1,3.9-17.4,9.5-24.4,16.8l0,0l0,0l0,0c-0.9,0.9-2,1.3-3.1,1.3c-1.1,0-2.2-0.4-3.1-1.3h0l0,0l0,0
		l0,0l0,0c-0.9-0.8-1.3-1.9-1.3-3c0-1.1,0.4-2.2,1.2-3.1h0l0,0l0,0C73,43.3,82.3,37,92.4,32.7c10.1-4.3,21.1-6.7,32.4-6.8l0,0h1
		c10.9,0,21.5,2.1,31.3,6c9.6,3.8,18.4,9.4,26.2,16.6l-0.1-6.4l0,0c0-1.2,0.5-2.3,1.3-3.1c0.8-0.8,1.9-1.3,3.1-1.3l0,0h0
		c1.2,0,2.3,0.5,3.1,1.3c0.8,0.8,1.3,1.9,1.3,3.1v0l0.2,16.8l0,0c0,1.2-0.5,2.3-1.3,3.1c-0.8,0.8-1.9,1.3-3.1,1.3h0L171,63.4l0,0h0
		c-1.2,0-2.3-0.5-3.1-1.3c-0.8-0.8-1.3-1.9-1.3-3.1l0,0c0-1.2,0.5-2.3,1.3-3.1c0.8-0.8,1.9-1.3,3.1-1.3h0l6.2-0.1
		c-7-6.4-15.1-11.4-23.7-14.8c-9-3.5-18.6-5.3-28.5-5.2C114.8,34.8,104.9,36.9,95.8,40.8"/>
</g>
</svg>
