<?xml version="1.0" encoding="utf-8"?>
<!-- Generator: Adobe Illustrator 21.0.2, SVG Export Plug-In . SVG Version: 6.00 Build 0)  -->
<svg version="1.1" id="Layer_1" xmlns="http://www.w3.org/2000/svg" xmlns:xlink="http://www.w3.org/1999/xlink" x="0px" y="0px"
	 viewBox="0 0 256 256" style="enable-background:new 0 0 256 256;" xml:space="preserve">
<style type="text/css">
	.st0{fill:#B8143C;}
	.st1{fill:#FFFFFF;}
</style>
<g>
	<path class="st0" d="M127.6,80.3c9.1,0,17.6,4.5,22.7,12.1c0.9,1.4,0.6,3.2-0.8,4.2c-1.4,0.9-3.2,0.6-4.2-0.8
		c-4-5.9-10.6-9.5-17.8-9.5c-11.8,0-21.4,9.6-21.4,21.4V134c0,1.7-1.3,3-3,3c-1.7,0-3-1.3-3-3v-26.2
		C100.2,92.6,112.5,80.3,127.6,80.3"/>
	<path class="st0" d="M152,116.4c-1.7,0-3-1.3-3-3v-5.6c0-1.7,1.3-3,3-3c1.7,0,3,1.3,3,3v5.6C155,115,153.7,116.4,152,116.4"/>
	<path class="st0" d="M138,166.9c6.8-3.8,11-11,11-18.7v-25.5c0-1.7,1.3-3,3-3c1.7,0,3,1.3,3,3v25.5c0,9.9-5.4,19.1-14.1,24
		c-0.5,0.3-1,0.4-1.5,0.4c-1,0-2.1-0.6-2.6-1.5C136.1,169.6,136.6,167.7,138,166.9"/>
	<path class="st0" d="M103.2,141c1.7,0,3,1.3,3,3v4.2c0,11.5,9,20.9,20.4,21.4c1.7,0.1,2.9,1.5,2.8,3.1c-0.1,1.6-1.4,2.9-3,2.9
		c0,0-0.1,0-0.1,0c-14.7-0.7-26.1-12.7-26.1-27.4V144C100.2,142.3,101.5,141,103.2,141"/>
	<path class="st0" d="M115.9,108v22.2c0,1.7-1.3,3-3,3c-1.7,0-3-1.3-3-3V108c0-9.7,7.8-17.8,17.4-18c4.8-0.1,9.3,1.7,12.8,5.1
		c3.4,3.4,5.3,7.9,5.3,12.7v40.5c0,1.7-1.3,3-3,3c-1.7,0-3-1.3-3-3v-40.5c0-3.2-1.3-6.2-3.5-8.4c-2.3-2.2-5.3-3.4-8.5-3.4
		C121,96.1,115.9,101.5,115.9,108"/>
	<path class="st0" d="M109.9,150.9v-11.3c0-1.7,1.3-3,3-3c1.7,0,3,1.3,3,3v11.3c0,3.8,3.1,6.9,6.9,6.9c3.8,0,6.9-3.1,6.9-6.9v-20.1
		c0-1.7,1.3-3,3-3c1.7,0,3,1.3,3,3v20.1c0,7.1-5.8,12.9-12.9,12.9C115.7,163.8,109.9,158,109.9,150.9"/>
	<path class="st0" d="M122.6,153c-1.7,0-3-1.3-3-3v-42.1c0-4.4,3.4-8,7.7-8.2c2.2-0.1,4.3,0.7,6,2.2c1.6,1.5,2.5,3.6,2.5,5.8v13.1
		c0,1.7-1.3,3-3,3c-1.7,0-3-1.3-3-3v-13.1c0-0.6-0.2-1.1-0.6-1.5c-0.4-0.4-1-0.6-1.5-0.6c-1.1,0.1-2,1-2,2.2V150
		C125.5,151.7,124.2,153,122.6,153"/>
	<path class="st1" d="M83.2,25.9h89.5h0v0c5.2,0,9.9,2.1,13.3,5.5c3.4,3.4,5.5,8.1,5.5,13.3v0v166.6c0,5.2-2.1,9.9-5.5,13.3
		c-3.4,3.4-8.1,5.5-13.3,5.5H83.2c-5.2,0-9.9-2.1-13.3-5.5c-3.4-3.4-5.5-8.1-5.5-13.3V44.7c0-5.2,2.1-9.9,5.5-13.3
		C73.3,28,78,25.9,83.2,25.9 M182.8,64.9H73.2v125.5h109.6V64.9z M172.8,34.7H83.2c-2.8,0-5.3,1.1-7.1,2.9c-1.8,1.8-2.9,4.3-2.9,7.1
		v11.3h109.6V44.7c0-2.8-1.1-5.3-2.9-7.1C178,35.8,175.5,34.7,172.8,34.7z M83.2,221.3h89.5c2.8,0,5.3-1.1,7.1-2.9
		c1.8-1.8,2.9-4.3,2.9-7.1v-12.1H73.2v12.1c0,2.8,1.1,5.3,2.9,7.1C78,220.2,80.5,221.3,83.2,221.3z"/>
	<path class="st1" d="M138.9,49.9h-21.8c-1.2,0-2.3-0.5-3.1-1.3c-0.8-0.8-1.3-1.9-1.3-3.1c0-1.2,0.5-2.3,1.3-3.1l0,0
		c0.8-0.8,1.9-1.3,3.1-1.3h21.8c1.2,0,2.3,0.5,3.1,1.3c0.8,0.8,1.3,1.9,1.3,3.1c0,1.2-0.5,2.3-1.3,3.1
		C141.2,49.4,140.1,49.9,138.9,49.9"/>
	<path class="st1" d="M126.2,212.3c0.5,0.5,1.1,0.8,1.8,0.8c0.7,0,1.4-0.3,1.8-0.8c0.5-0.5,0.8-1.1,0.8-1.8c0-0.7-0.3-1.4-0.8-1.8
		c-0.5-0.5-1.1-0.8-1.8-0.8c-0.7,0-1.4,0.3-1.8,0.8c-0.5,0.5-0.8,1.1-0.8,1.8C125.4,211.2,125.7,211.8,126.2,212.3 M128,219.1
		c-2.4,0-4.6-1-6.1-2.5c-1.6-1.6-2.5-3.7-2.5-6.1c0-2.4,1-4.6,2.5-6.1c1.6-1.6,3.7-2.5,6.1-2.5c2.4,0,4.6,1,6.1,2.5
		c1.6,1.6,2.5,3.7,2.5,6.1c0,2.4-1,4.6-2.5,6.1C132.6,218.2,130.4,219.1,128,219.1z"/>
</g>
</svg>
