<?xml version="1.0" encoding="utf-8"?>
<!-- Generator: Adobe Illustrator 21.0.2, SVG Export Plug-In . SVG Version: 6.00 Build 0)  -->
<svg version="1.1" id="Layer_1" xmlns="http://www.w3.org/2000/svg" xmlns:xlink="http://www.w3.org/1999/xlink" x="0px" y="0px"
	 viewBox="0 0 256 256" style="enable-background:new 0 0 256 256;" xml:space="preserve">
<style type="text/css">
	.st0{fill:#B8143C;}
	.st1{fill:#FFFFFF;}
</style>
<g>
	<path class="st0" d="M141.3,28.9c0.8-0.8,1.9-1.3,3.1-1.3c12.1,0,23.9,2.6,34.7,7.5c10.8,4.9,20.6,12,28.6,21.1
		c6.8,7.7,12.1,16.6,15.7,26.1c3.6,9.5,5.5,19.6,5.5,29.9c0,1.2-0.5,2.3-1.3,3.1c-0.8,0.8-1.9,1.3-3.1,1.3h-80.2
		c-1.2,0-2.3-0.5-3.1-1.3c-0.8-0.8-1.3-1.9-1.3-3.1V32C140.1,30.8,140.5,29.7,141.3,28.9 M148.7,36.4v71.5h71.5
		c-0.5-8.5-2.4-16.7-5.6-24.5c-3.2-7.8-7.7-15.1-13.3-21.5c-6.8-7.6-14.9-13.7-23.9-18.1C168.5,39.6,158.7,37,148.7,36.4z"/>
	<path class="st1" d="M207.9,134.2c0.8,0.8,1.3,1.9,1.3,3.1c0,25.1-10.2,47.9-26.7,64.4c-16.5,16.5-39.2,26.7-64.3,26.7
		c-25.1,0-47.9-10.2-64.4-26.7c-16.5-16.5-26.7-39.3-26.7-64.4c0-25.1,10.2-47.9,26.7-64.4C70.3,56.4,93,46.2,118.1,46.2
		c1.2,0,2.3,0.5,3.1,1.3c0.8,0.8,1.3,1.9,1.3,3.1V133h82.4C206,133,207.1,133.5,207.9,134.2 M59.9,195.5
		c14.9,14.9,35.5,24.2,58.3,24.2c22,0,42-8.7,56.8-22.8c14.8-14.1,24.4-33.7,25.5-55.4h-82.3c-1.2,0-2.3-0.5-3.1-1.3
		c-0.8-0.8-1.3-1.9-1.3-3.1V54.9c-21.7,1.1-41.3,10.7-55.4,25.5c-14.1,14.8-22.7,34.8-22.7,56.8C35.7,160,44.9,180.6,59.9,195.5z"/>
</g>
</svg>
